#N canvas 331 89 956 580 10;
#X obj 358 123 bng 15 250 50 0 empty empty empty 17 7 0 10 -262144
-1 -1;
#X floatatom 278 316 5 0 0 0 - - -, f 5;
#X obj 278 215 tgl 15 0 empty empty empty 17 7 0 10 -262144 -1 -1 1
1;
#X obj 352 603 dac~;
#X obj 278 243 metro 300;
#X obj 277 264 random 60;
#X floatatom 330 222 5 0 0 0 - - -, f 5;
#X obj 355 515 *~ 0.4;
#X obj 510 501 tgl 15 0 empty empty empty 17 7 0 10 -262144 -1 -1 0
1;
#X floatatom 337 371 0 0 0 0 - - -;
#X text 365 386 <-- delay time;
#X obj 314 459 +~;
#X obj 279 431 phasor~;
#X obj 335 412 delread~ G02-del 12;
#X obj 335 435 *~ 0.24;
#X floatatom 392 441 5 0 0 0 - - -, f 5;
#X obj 354 484 delwrite~ G02-del 500;
#X text 550 30 TAKES A LIST OF FREQUENCY PITCHES AND DISPLAY IT IN
AN ARRAY RETUNE YOUR OSCILATORS FROM A TUINING FILE TO RETUNEEXPORT
APP;
#X obj 24 48 loadbang;
#X obj 359 16 r array-help-send;
#X floatatom 359 92 5 0 0 0 - - -, f 5;
#X obj 359 41 t b p;
#X obj 359 65 array size -s float-array z;
#X obj 277 288 + 20;
#X floatatom 279 365 5 0 0 0 - - -, f 5;
#X obj 397 308 t b p;
#X obj 279 340 array get -s float-array z;
#X obj 397 284 r array-help-send;
#X obj 27 91 t b b;
#X obj 77 71 bng 15 250 50 0 empty empty empty 17 7 0 10 -262144 -1
-1;
#X msg 358 148 send array-help-send;
#X msg 6 145 \; array-help-1 read freqsArray.txt array-help-1 size
128 array-help-1 bounds 0 0 128 20000;
#X msg 275 194 1;
#X obj 513 451 r gate @hv_params 0 1 1;
#X obj 358 176 array define array-help-1 128;
#X connect 0 0 30 0;
#X connect 1 0 26 0;
#X connect 2 0 4 0;
#X connect 4 0 5 0;
#X connect 5 0 23 0;
#X connect 6 0 4 1;
#X connect 7 0 3 0;
#X connect 7 0 3 1;
#X connect 8 0 7 1;
#X connect 9 0 13 0;
#X connect 11 0 7 0;
#X connect 11 0 16 0;
#X connect 12 0 11 0;
#X connect 13 0 14 0;
#X connect 14 0 11 1;
#X connect 15 0 14 1;
#X connect 18 0 28 0;
#X connect 19 0 21 0;
#X connect 21 0 22 0;
#X connect 21 1 22 1;
#X connect 22 0 20 0;
#X connect 23 0 1 0;
#X connect 24 0 12 0;
#X connect 25 1 26 2;
#X connect 26 0 24 0;
#X connect 27 0 25 0;
#X connect 28 0 0 0;
#X connect 28 0 32 0;
#X connect 28 1 31 0;
#X connect 29 0 28 0;
#X connect 30 0 34 0;
#X connect 32 0 2 0;
#X connect 33 0 8 0;
