#N canvas 609 125 956 580 10;
#X floatatom 130 221 5 0 0 0 - - -, f 5;
#X obj 130 120 tgl 15 0 empty empty empty 17 7 0 10 -262144 -1 -1 1
1;
#X obj 351 500 dac~;
#X obj 130 148 metro 300;
#X obj 129 169 random 60;
#X floatatom 182 127 5 0 0 0 - - -, f 5;
#X obj 354 412 *~ 0.4;
#X obj 509 398 tgl 15 0 empty empty empty 17 7 0 10 -262144 -1 -1 0
1;
#X floatatom 336 268 0 0 0 0 - - -;
#X text 364 283 <-- delay time;
#X obj 313 356 +~;
#X obj 278 328 phasor~;
#X obj 334 309 delread~ G02-del 12;
#X obj 334 332 *~ 0.24;
#X floatatom 391 338 5 0 0 0 - - -, f 5;
#X obj 353 381 delwrite~ G02-del 500;
#X text 24 14 TAKES A LIST OF FREQUENCY PITCHES AND DISPLAY IT IN AN
ARRAY RETUNE YOUR OSCILATORS FROM A TUINING FILE TO RETUNEEXPORT APP
;
#X obj 129 193 + 20;
#X floatatom 278 262 5 0 0 0 - - -, f 5;
#X msg 127 99 1;
#X obj 512 348 r gate @hv_params 0 1 1;
#X obj 251 177 table freqTab 128;
#X obj 203 207 tabread freqTab;
#X floatatom 202 183 5 0 0 0 - - -, f 5;
#X floatatom 205 238 5 0 0 0 - - -, f 5;
#X obj 477 256 r delTime @hv_params 0 1 0;
#X obj 480 289 r fbk @hv_params 0 1 0;
#X msg 397 199 \; freqTab read freqsArray.txt;
#X obj 432 156 loadbang;
#X msg 580 197 \; pd dsp 1;
#X obj 578 173 del 12;
#X connect 0 0 23 0;
#X connect 1 0 3 0;
#X connect 3 0 4 0;
#X connect 4 0 17 0;
#X connect 5 0 3 1;
#X connect 6 0 2 0;
#X connect 6 0 2 1;
#X connect 7 0 6 1;
#X connect 8 0 12 0;
#X connect 10 0 6 0;
#X connect 10 0 15 0;
#X connect 11 0 10 0;
#X connect 12 0 13 0;
#X connect 13 0 10 1;
#X connect 14 0 13 1;
#X connect 17 0 0 0;
#X connect 18 0 11 0;
#X connect 19 0 1 0;
#X connect 20 0 7 0;
#X connect 22 0 24 0;
#X connect 23 0 22 0;
#X connect 24 0 18 0;
#X connect 25 0 8 0;
#X connect 26 0 14 0;
#X connect 28 0 27 0;
#X connect 28 0 30 0;
#X connect 30 0 29 0;
